<svg version="1.1" id="Layer_1" xmlns="http://www.w3.org/2000/svg" xmlns:xlink="http://www.w3.org/1999/xlink" x="0px" y="0px"
	 width="100%" viewBox="0 0 651 651" enable-background="new 0 0 651 651" xml:space="preserve">
<path fill="#FFFFFF" opacity="1.000000" stroke="none" 
	d="
M369.000000,652.000000 
	C246.000015,652.000000 123.500046,652.000000 1.000049,652.000000 
	C1.000033,435.000061 1.000033,218.000122 1.000016,1.000137 
	C217.999893,1.000091 434.999786,1.000091 651.999756,1.000046 
	C651.999878,217.999863 651.999878,434.999725 651.999939,651.999756 
	C557.833313,652.000000 463.666656,652.000000 369.000000,652.000000 
M524.937012,320.975616 
	C531.647705,320.879852 538.347107,321.561432 544.857544,318.702209 
	C556.760986,313.474518 564.008972,304.073547 568.671265,292.536377 
	C573.179932,281.379425 573.346313,269.864471 568.690247,258.664215 
	C567.748047,256.397583 565.201233,254.290771 562.889099,253.344620 
	C561.932983,252.953400 559.520691,255.688202 558.007690,257.233398 
	C556.885681,258.379272 556.169006,259.915802 555.231812,261.250275 
	C552.885803,264.590607 549.495972,266.237579 545.786987,264.730835 
	C541.820007,263.119324 541.528931,259.076233 542.087036,255.358932 
	C542.932312,249.730133 544.135559,244.155334 545.173523,238.555130 
	C548.318970,221.583557 544.161316,206.477264 533.533081,193.025162 
	C526.281311,183.846695 517.012207,176.221802 512.682922,164.753738 
	C511.876373,162.617157 508.061310,160.171127 505.902161,160.399292 
	C503.768768,160.624725 500.641479,163.850510 500.290436,166.121796 
	C499.375916,172.038559 498.879944,178.288284 499.795380,184.159088 
	C501.311371,193.881699 503.833160,203.429016 503.014771,213.407043 
	C502.371613,221.248764 499.520721,228.008072 493.364532,233.061172 
	C485.461548,239.548035 476.317749,236.411926 473.962738,226.579330 
	C473.512146,224.698044 472.936249,222.767136 471.983246,221.109055 
	C471.098480,219.569656 469.726379,217.407181 468.396698,217.276978 
	C467.027527,217.142899 464.954773,218.820435 464.053558,220.249817 
	C460.842682,225.342728 457.711365,230.526367 455.066284,235.928482 
	C443.237427,260.087128 445.108521,283.627899 460.424316,305.388123 
	C466.954956,314.666687 475.968384,322.180573 489.915161,320.972321 
	C501.281860,320.926300 512.648560,320.880280 524.937012,320.975616 
M156.811310,320.973389 
	C165.544601,318.673645 172.767288,314.341461 178.556808,307.092896 
	C191.611969,290.747681 195.288681,272.264191 191.521454,252.218826 
	C189.141830,239.556885 183.034485,228.390945 174.897110,218.383057 
	C165.672363,207.037811 163.459656,194.490677 168.666260,180.780533 
	C171.775070,172.594315 175.478378,164.611374 178.176514,156.297577 
	C181.283463,146.723984 182.781250,136.854736 178.988876,126.992004 
	C177.668732,123.558701 175.317657,120.344467 171.482925,121.242744 
	C168.741592,121.884911 165.300980,124.250618 164.270523,126.722076 
	C157.685135,142.516891 146.519211,154.825684 135.351425,167.337677 
	C123.951805,180.109375 119.268257,195.146439 122.914696,212.377121 
	C124.295029,218.899673 125.463432,225.538864 125.858986,232.176697 
	C126.214249,238.138443 121.088814,244.279938 116.349945,244.986359 
	C110.255249,245.894867 105.907211,242.861862 103.956734,235.409805 
	C102.774231,230.891876 102.937462,226.029755 101.862488,221.471710 
	C101.424385,219.614090 99.479408,217.078247 97.905022,216.827332 
	C96.472763,216.599045 94.014954,218.705627 93.053886,220.381912 
	C90.055191,225.612228 87.101143,230.955353 84.968307,236.573105 
	C82.221321,243.808502 79.176231,251.213181 78.227943,258.791290 
	C76.133682,275.527252 79.964424,291.266968 91.169510,304.233795 
	C99.661995,314.061493 109.501930,322.330688 124.915398,320.972534 
	C135.290298,320.926910 145.665192,320.881287 156.811310,320.973389 
M287.892670,320.972809 
	C313.267120,320.926636 338.641571,320.880493 364.904541,320.975006 
	C367.986511,320.660828 371.199951,320.803009 374.129272,319.959045 
	C394.466492,314.099731 404.889801,298.751221 410.875763,279.900299 
	C415.187988,266.320465 417.796021,252.198257 422.136047,238.628815 
	C427.147766,222.959229 431.740448,207.516327 429.129669,190.694260 
	C427.585907,180.747314 425.059357,171.296524 420.052521,162.591949 
	C411.764130,148.182175 399.974548,135.686279 396.845978,118.457451 
	C395.964172,113.601227 390.607849,112.238808 386.890198,115.768646 
	C384.075775,118.440887 381.123596,121.895653 380.258148,125.489883 
	C378.703278,131.947205 379.071289,138.843262 377.884644,145.420486 
	C376.745453,151.734833 375.726288,158.458603 372.741669,163.965881 
	C367.625885,173.405533 353.760132,176.989670 347.174225,164.779922 
	C344.036499,158.962845 342.002625,152.136307 341.205780,145.556671 
	C339.541046,131.810867 343.244720,118.565506 347.201019,105.512650 
	C351.580414,91.063736 353.563354,76.494728 349.984436,61.558903 
	C347.089417,49.477154 341.834106,38.481808 333.498474,29.305115 
	C331.145020,26.714231 326.814606,24.433744 323.497650,24.571959 
	C319.157013,24.752831 317.413422,29.467094 316.261169,33.491688 
	C315.905304,34.734806 316.050690,36.126873 316.003479,37.452053 
	C315.665192,46.949558 313.360443,55.951595 307.740692,63.649971 
	C298.500092,76.308533 288.743408,88.588989 279.383392,101.162148 
	C267.399261,117.260178 259.417633,135.081848 260.238495,155.459106 
	C260.660706,165.939499 263.729919,176.295441 265.256256,186.758209 
	C265.839172,190.753952 266.353912,195.173019 265.197144,198.865860 
	C264.407745,201.385834 260.939636,204.075302 258.188965,204.760147 
	C252.640091,206.141678 248.422836,202.720825 245.190491,198.467041 
	C238.164902,189.221390 237.727829,178.159332 237.067764,167.248856 
	C236.827805,163.282578 235.187317,160.010193 231.588821,159.566574 
	C229.610886,159.322754 226.462875,161.782791 225.205933,163.852005 
	C222.348190,168.556473 219.889755,173.616058 218.054337,178.808884 
	C211.313950,197.879166 207.511215,217.489761 211.155045,237.672668 
	C213.133865,248.633148 215.723297,259.695129 219.797028,270.016815 
	C226.180603,286.191010 237.725601,298.806396 251.660645,309.079041 
	C262.099548,316.774384 273.275574,322.681976 287.892670,320.972809 
M406.000000,429.500000 
	C406.000000,421.001434 405.812805,412.497620 406.049988,404.005676 
	C406.313873,394.557953 404.437164,385.704651 399.285217,377.769318 
	C390.404510,364.090698 378.562622,355.059448 361.465332,355.016357 
	C336.302917,354.952972 311.140228,354.996063 285.977661,355.009888 
	C284.487946,355.010712 282.928528,354.893280 281.519104,355.270325 
	C260.407379,360.918365 246.289597,378.838837 246.115005,400.492859 
	C245.740143,446.982269 245.974411,493.476837 246.042862,539.969177 
	C246.049149,544.231995 246.406052,548.530762 247.026474,552.750122 
	C250.527252,576.558472 269.664642,592.924133 292.885376,592.987183 
	C314.881653,593.046936 336.880524,593.174011 358.872955,592.877197 
	C364.348633,592.803284 370.020508,591.877625 375.228912,590.190857 
	C392.806946,584.498108 405.688446,566.607117 405.875122,548.479492 
	C406.280090,509.156738 406.000000,469.826935 406.000000,429.500000 
M40.000000,509.505188 
	C40.000019,518.671021 39.972687,527.836975 40.009743,537.002625 
	C40.034142,543.038513 40.995060,543.996521 46.824940,543.997437 
	C79.322655,544.002808 111.820374,544.000000 144.318085,544.000000 
	C146.091385,544.000000 147.864685,544.000000 150.000076,544.000000 
	C150.000076,558.378235 149.980835,572.177917 150.009354,585.977417 
	C150.021057,591.644409 151.347351,592.976135 156.993912,592.990417 
	C169.326279,593.021545 181.658875,593.022461 193.991241,592.990356 
	C199.980606,592.974731 201.974976,590.972961 201.990646,584.969727 
	C202.022003,572.970642 201.999985,560.971375 202.000000,548.972229 
	C202.000015,547.386292 202.000015,545.800354 202.000015,543.998535 
	C207.881821,543.998535 213.075592,544.362122 218.166565,543.798035 
	C219.908768,543.604980 222.738770,541.126892 222.783615,539.624451 
	C223.156494,527.136536 223.021622,514.632446 222.972244,502.133575 
	C222.960526,499.166077 221.544754,497.792542 218.320267,497.936584 
	C213.042267,498.172333 207.746063,498.000366 202.000000,498.000366 
	C202.000000,495.737976 202.000000,493.950012 202.000000,492.162048 
	C202.000000,450.331665 202.000214,408.501251 201.999115,366.670868 
	C201.999084,365.337738 202.276550,363.923584 201.930954,362.684937 
	C200.001053,355.768066 201.152420,354.904846 193.230286,354.957520 
	C173.732529,355.087189 154.232513,355.091095 134.735428,354.917297 
	C131.160233,354.885437 128.874710,356.004395 126.972244,358.947418 
	C121.747017,367.030609 116.204636,374.909760 111.022270,383.019531 
	C91.615471,413.388947 72.331619,443.836884 52.938194,474.214844 
	C46.207897,484.757233 37.176064,494.381897 40.000000,509.505188 
M563.500488,593.000000 
	C569.663879,593.000000 575.827209,593.005188 581.990601,592.998596 
	C588.597595,592.991516 589.996887,591.554626 589.998840,584.771301 
	C590.002686,571.328735 590.000000,557.886169 590.000000,543.999817 
	C595.780640,543.999817 601.073730,543.882874 606.358887,544.038025 
	C610.359802,544.155457 612.081909,542.532593 612.040955,538.463928 
	C611.923706,526.804932 611.925476,515.143188 612.039795,503.484131 
	C612.080078,499.382202 610.273682,497.843445 606.306885,497.961395 
	C601.026245,498.118408 595.737366,498.000153 590.000000,498.000153 
	C590.000000,495.732910 590.000000,493.945160 590.000000,492.157440 
	C590.000000,448.848145 590.005066,405.538818 589.993652,362.229523 
	C589.992188,356.667480 588.645569,355.036133 583.718567,355.022736 
	C563.896362,354.968842 544.072083,354.876160 524.254150,355.171844 
	C522.007751,355.205353 519.003113,357.063110 517.695374,358.988647 
	C507.617950,373.826508 497.854340,388.877899 488.030151,403.887115 
	C480.706573,415.076019 473.432892,426.297638 466.145599,437.510284 
	C454.508850,455.415314 442.844452,473.302612 431.300781,491.267517 
	C430.148438,493.060822 429.131378,495.328613 429.100433,497.391907 
	C428.903137,510.548309 428.996277,523.709106 429.001526,536.868469 
	C429.004211,543.614075 429.379395,543.997375 436.042511,543.998169 
	C468.857635,544.002197 501.672791,544.000000 534.487915,544.000000 
	C536.244202,544.000000 538.000427,544.000000 540.000000,544.000000 
	C540.000000,558.174072 539.995239,571.649597 540.002075,585.125122 
	C540.005127,591.106934 541.866699,592.948914 548.009094,592.993042 
	C552.839478,593.027832 557.670349,593.000000 563.500488,593.000000 
z"/>
<path fill="#F77B0B" opacity="1.000000" stroke="none" 
	d="
M286.959290,320.835693 
	C273.275574,322.681976 262.099548,316.774384 251.660645,309.079041 
	C237.725601,298.806396 226.180603,286.191010 219.797028,270.016815 
	C215.723297,259.695129 213.133865,248.633148 211.155045,237.672668 
	C207.511215,217.489761 211.313950,197.879166 218.054337,178.808884 
	C219.889755,173.616058 222.348190,168.556473 225.205933,163.852005 
	C226.462875,161.782791 229.610886,159.322754 231.588821,159.566574 
	C235.187317,160.010193 236.827805,163.282578 237.067764,167.248856 
	C237.727829,178.159332 238.164902,189.221390 245.190491,198.467041 
	C248.422836,202.720825 252.640091,206.141678 258.188965,204.760147 
	C260.939636,204.075302 264.407745,201.385834 265.197144,198.865860 
	C266.353912,195.173019 265.839172,190.753952 265.256256,186.758209 
	C263.729919,176.295441 260.660706,165.939499 260.238495,155.459106 
	C259.417633,135.081848 267.399261,117.260178 279.383392,101.162148 
	C288.743408,88.588989 298.500092,76.308533 307.740692,63.649971 
	C313.360443,55.951595 315.665192,46.949558 316.003479,37.452053 
	C316.050690,36.126873 315.905304,34.734806 316.261169,33.491688 
	C317.413422,29.467094 319.157013,24.752831 323.497650,24.571959 
	C326.814606,24.433744 331.145020,26.714231 333.498474,29.305115 
	C341.834106,38.481808 347.089417,49.477154 349.984436,61.558903 
	C353.563354,76.494728 351.580414,91.063736 347.201019,105.512650 
	C343.244720,118.565506 339.541046,131.810867 341.205780,145.556671 
	C342.002625,152.136307 344.036499,158.962845 347.174225,164.779922 
	C353.760132,176.989670 367.625885,173.405533 372.741669,163.965881 
	C375.726288,158.458603 376.745453,151.734833 377.884644,145.420486 
	C379.071289,138.843262 378.703278,131.947205 380.258148,125.489883 
	C381.123596,121.895653 384.075775,118.440887 386.890198,115.768646 
	C390.607849,112.238808 395.964172,113.601227 396.845978,118.457451 
	C399.974548,135.686279 411.764130,148.182175 420.052521,162.591949 
	C425.059357,171.296524 427.585907,180.747314 429.129669,190.694260 
	C431.740448,207.516327 427.147766,222.959229 422.136047,238.628815 
	C417.796021,252.198257 415.187988,266.320465 410.875763,279.900299 
	C404.889801,298.751221 394.466492,314.099731 374.129272,319.959045 
	C371.199951,320.803009 367.986511,320.660828 364.495667,320.559998 
	C364.899323,318.708588 365.609741,317.201843 366.542633,315.848450 
	C369.928070,310.937134 373.942657,306.371613 376.718079,301.143799 
	C385.759583,284.113220 386.421021,266.322876 380.116638,248.239456 
	C379.322937,245.962921 377.912354,243.759048 376.313904,241.937119 
	C373.559753,238.798035 371.241882,239.240143 370.488739,243.252365 
	C367.886047,257.117432 359.383759,267.069794 349.383362,276.092590 
	C343.613068,281.298798 335.355286,278.988312 334.234070,271.271545 
	C333.301819,264.855286 333.094543,257.929260 334.494446,251.659592 
	C337.789276,236.903580 335.148651,222.895874 330.381287,209.234344 
	C327.489044,200.946182 322.640839,193.370621 314.878571,188.403763 
	C313.614105,187.594650 311.527893,186.894562 310.402649,187.410782 
	C309.484741,187.831894 309.102112,190.134918 309.056061,191.621307 
	C308.819031,199.269821 309.335632,206.984436 308.530884,214.563614 
	C306.919281,229.741638 298.309631,241.024200 287.288177,250.979141 
	C281.865723,255.876907 275.858643,260.733368 274.628723,269.105652 
	C273.533356,275.545105 272.753571,281.776031 271.982056,288.436768 
	C272.841919,301.460541 278.282227,311.905884 286.959290,320.835693 
z"/>
<path fill="#FFAC0F" opacity="1.000000" stroke="none" 
	d="
M406.000000,430.000000 
	C406.000000,469.826935 406.280090,509.156738 405.875122,548.479492 
	C405.688446,566.607117 392.806946,584.498108 375.228912,590.190857 
	C370.020508,591.877625 364.348633,592.803284 358.872955,592.877197 
	C336.880524,593.174011 314.881653,593.046936 292.885376,592.987183 
	C269.664642,592.924133 250.527252,576.558472 247.026474,552.750122 
	C246.406052,548.530762 246.049149,544.231995 246.042862,539.969177 
	C245.974411,493.476837 245.740143,446.982269 246.115005,400.492859 
	C246.289597,378.838837 260.407379,360.918365 281.519104,355.270325 
	C282.928528,354.893280 284.487946,355.010712 285.977661,355.009888 
	C311.140228,354.996063 336.302917,354.952972 361.465332,355.016357 
	C378.562622,355.059448 390.404510,364.090698 399.285217,377.769318 
	C404.437164,385.704651 406.313873,394.557953 406.049988,404.005676 
	C405.812805,412.497620 406.000000,421.001434 406.000000,430.000000 
M298.000000,504.500000 
	C298.000000,515.487366 298.061310,526.475281 297.975433,537.461975 
	C297.928955,543.404724 299.417969,545.259766 305.273193,545.111877 
	C319.081879,544.763123 332.905365,545.002747 346.722870,544.998840 
	C353.834351,544.996826 354.989288,543.885376 354.992065,536.729004 
	C355.008209,494.943512 355.005463,453.157990 354.994263,411.372498 
	C354.992523,404.841705 353.080780,403.009216 346.349182,403.003448 
	C332.864624,402.991821 319.380066,402.994263 305.895508,403.002441 
	C299.059387,403.006592 298.002380,404.093964 298.001556,411.105774 
	C297.997986,441.903839 298.000000,472.701935 298.000000,504.500000 
z"/>
<path fill="#FFAC0F" opacity="1.000000" stroke="none" 
	d="
M40.000000,509.006744 
	C37.176064,494.381897 46.207897,484.757233 52.938194,474.214844 
	C72.331619,443.836884 91.615471,413.388947 111.022270,383.019531 
	C116.204636,374.909760 121.747017,367.030609 126.972244,358.947418 
	C128.874710,356.004395 131.160233,354.885437 134.735428,354.917297 
	C154.232513,355.091095 173.732529,355.087189 193.230286,354.957520 
	C201.152420,354.904846 200.001053,355.768066 201.930954,362.684937 
	C202.276550,363.923584 201.999084,365.337738 201.999115,366.670868 
	C202.000214,408.501251 202.000000,450.331665 202.000000,492.162048 
	C202.000000,493.950012 202.000000,495.737976 202.000000,498.000366 
	C207.746063,498.000366 213.042267,498.172333 218.320267,497.936584 
	C221.544754,497.792542 222.960526,499.166077 222.972244,502.133575 
	C223.021622,514.632446 223.156494,527.136536 222.783615,539.624451 
	C222.738770,541.126892 219.908768,543.604980 218.166565,543.798035 
	C213.075592,544.362122 207.881821,543.998535 202.000015,543.998535 
	C202.000015,545.800354 202.000015,547.386292 202.000000,548.972229 
	C201.999985,560.971375 202.022003,572.970642 201.990646,584.969727 
	C201.974976,590.972961 199.980606,592.974731 193.991241,592.990356 
	C181.658875,593.022461 169.326279,593.021545 156.993912,592.990417 
	C151.347351,592.976135 150.021057,591.644409 150.009354,585.977417 
	C149.980835,572.177917 150.000076,558.378235 150.000076,544.000000 
	C147.864685,544.000000 146.091385,544.000000 144.318085,544.000000 
	C111.820374,544.000000 79.322655,544.002808 46.824940,543.997437 
	C40.995060,543.996521 40.034142,543.038513 40.009743,537.002625 
	C39.972687,527.836975 40.000019,518.671021 40.000000,509.006744 
M150.000000,454.500000 
	C150.000000,442.077332 150.000000,429.654663 150.000000,417.231995 
	C149.433411,416.990265 148.866806,416.748505 148.300217,416.506775 
	C131.594315,442.891815 114.888420,469.276886 97.602638,496.577789 
	C115.481277,499.446808 132.602341,497.257996 150.000000,498.102142 
	C150.000000,483.429962 150.000000,469.464996 150.000000,454.500000 
z"/>
<path fill="#FFAC0F" opacity="1.000000" stroke="none" 
	d="
M563.000732,593.000000 
	C557.670349,593.000000 552.839478,593.027832 548.009094,592.993042 
	C541.866699,592.948914 540.005127,591.106934 540.002075,585.125122 
	C539.995239,571.649597 540.000000,558.174072 540.000000,544.000000 
	C538.000427,544.000000 536.244202,544.000000 534.487915,544.000000 
	C501.672791,544.000000 468.857635,544.002197 436.042511,543.998169 
	C429.379395,543.997375 429.004211,543.614075 429.001526,536.868469 
	C428.996277,523.709106 428.903137,510.548309 429.100433,497.391907 
	C429.131378,495.328613 430.148438,493.060822 431.300781,491.267517 
	C442.844452,473.302612 454.508850,455.415314 466.145599,437.510284 
	C473.432892,426.297638 480.706573,415.076019 488.030151,403.887115 
	C497.854340,388.877899 507.617950,373.826508 517.695374,358.988647 
	C519.003113,357.063110 522.007751,355.205353 524.254150,355.171844 
	C544.072083,354.876160 563.896362,354.968842 583.718567,355.022736 
	C588.645569,355.036133 589.992188,356.667480 589.993652,362.229523 
	C590.005066,405.538818 590.000000,448.848145 590.000000,492.157440 
	C590.000000,493.945160 590.000000,495.732910 590.000000,498.000153 
	C595.737366,498.000153 601.026245,498.118408 606.306885,497.961395 
	C610.273682,497.843445 612.080078,499.382202 612.039795,503.484131 
	C611.925476,515.143188 611.923706,526.804932 612.040955,538.463928 
	C612.081909,542.532593 610.359802,544.155457 606.358887,544.038025 
	C601.073730,543.882874 595.780640,543.999817 590.000000,543.999817 
	C590.000000,557.886169 590.002686,571.328735 589.998840,584.771301 
	C589.996887,591.554626 588.597595,592.991516 581.990601,592.998596 
	C575.827209,593.005188 569.663879,593.000000 563.000732,593.000000 
M509.502228,460.997894 
	C501.765717,473.187836 494.029205,485.377777 486.274628,497.596191 
	C504.428650,497.596191 522.146057,497.596191 539.567017,497.596191 
	C539.567017,470.186676 539.567017,443.182251 539.567017,416.177826 
	C539.146667,415.999207 538.726318,415.820587 538.305969,415.641968 
	C528.845459,430.557159 519.384949,445.472351 509.502228,460.997894 
z"/>
<path fill="#F77B0B" opacity="1.000000" stroke="none" 
	d="
M123.985382,320.834167 
	C109.501930,322.330688 99.661995,314.061493 91.169510,304.233795 
	C79.964424,291.266968 76.133682,275.527252 78.227943,258.791290 
	C79.176231,251.213181 82.221321,243.808502 84.968307,236.573105 
	C87.101143,230.955353 90.055191,225.612228 93.053886,220.381912 
	C94.014954,218.705627 96.472763,216.599045 97.905022,216.827332 
	C99.479408,217.078247 101.424385,219.614090 101.862488,221.471710 
	C102.937462,226.029755 102.774231,230.891876 103.956734,235.409805 
	C105.907211,242.861862 110.255249,245.894867 116.349945,244.986359 
	C121.088814,244.279938 126.214249,238.138443 125.858986,232.176697 
	C125.463432,225.538864 124.295029,218.899673 122.914696,212.377121 
	C119.268257,195.146439 123.951805,180.109375 135.351425,167.337677 
	C146.519211,154.825684 157.685135,142.516891 164.270523,126.722076 
	C165.300980,124.250618 168.741592,121.884911 171.482925,121.242744 
	C175.317657,120.344467 177.668732,123.558701 178.988876,126.992004 
	C182.781250,136.854736 181.283463,146.723984 178.176514,156.297577 
	C175.478378,164.611374 171.775070,172.594315 168.666260,180.780533 
	C163.459656,194.490677 165.672363,207.037811 174.897110,218.383057 
	C183.034485,228.390945 189.141830,239.556885 191.521454,252.218826 
	C195.288681,272.264191 191.611969,290.747681 178.556808,307.092896 
	C172.767288,314.341461 165.544601,318.673645 156.586304,320.578827 
	C156.855576,319.133789 157.520981,318.129395 157.818390,317.025848 
	C162.020264,301.434113 158.884460,286.653717 152.782410,272.209595 
	C151.603699,269.419495 150.469391,266.610626 148.631866,262.154816 
	C142.781662,268.282715 137.584686,273.077148 133.164230,278.504089 
	C125.964882,287.342560 121.889023,297.602386 122.094429,309.147217 
	C122.163910,313.052856 123.323799,316.939087 123.985382,320.834167 
z"/>
<path fill="#F77B0B" opacity="1.000000" stroke="none" 
	d="
M488.985107,320.834015 
	C475.968384,322.180573 466.954956,314.666687 460.424316,305.388123 
	C445.108521,283.627899 443.237427,260.087128 455.066284,235.928482 
	C457.711365,230.526367 460.842682,225.342728 464.053558,220.249817 
	C464.954773,218.820435 467.027527,217.142899 468.396698,217.276978 
	C469.726379,217.407181 471.098480,219.569656 471.983246,221.109055 
	C472.936249,222.767136 473.512146,224.698044 473.962738,226.579330 
	C476.317749,236.411926 485.461548,239.548035 493.364532,233.061172 
	C499.520721,228.008072 502.371613,221.248764 503.014771,213.407043 
	C503.833160,203.429016 501.311371,193.881699 499.795380,184.159088 
	C498.879944,178.288284 499.375916,172.038559 500.290436,166.121796 
	C500.641479,163.850510 503.768768,160.624725 505.902161,160.399292 
	C508.061310,160.171127 511.876373,162.617157 512.682922,164.753738 
	C517.012207,176.221802 526.281311,183.846695 533.533081,193.025162 
	C544.161316,206.477264 548.318970,221.583557 545.173523,238.555130 
	C544.135559,244.155334 542.932312,249.730133 542.087036,255.358932 
	C541.528931,259.076233 541.820007,263.119324 545.786987,264.730835 
	C549.495972,266.237579 552.885803,264.590607 555.231812,261.250275 
	C556.169006,259.915802 556.885681,258.379272 558.007690,257.233398 
	C559.520691,255.688202 561.932983,252.953400 562.889099,253.344620 
	C565.201233,254.290771 567.748047,256.397583 568.690247,258.664215 
	C573.346313,269.864471 573.179932,281.379425 568.671265,292.536377 
	C564.008972,304.073547 556.760986,313.474518 544.857544,318.702209 
	C538.347107,321.561432 531.647705,320.879852 524.481812,320.500671 
	C526.771240,310.427765 526.021912,301.226379 521.675476,292.124146 
	C519.058899,286.644440 517.155090,280.802948 515.230286,275.024353 
	C514.407349,272.553680 514.347229,269.828918 513.940552,267.219574 
	C513.375977,266.952972 512.811340,266.686340 512.246765,266.419739 
	C507.768738,269.647552 503.057587,272.599884 498.856384,276.154907 
	C486.291168,286.787445 482.177063,301.065948 487.803162,316.583862 
	C488.302887,317.962219 488.596008,319.415497 488.985107,320.834015 
z"/>
<path fill="#FFAC0F" opacity="1.000000" stroke="none" 
	d="
M274.944275,268.897095 
	C275.858643,260.733368 281.865723,255.876907 287.288177,250.979141 
	C298.309631,241.024200 306.919281,229.741638 308.530884,214.563614 
	C309.335632,206.984436 308.819031,199.269821 309.056061,191.621307 
	C309.102112,190.134918 309.484741,187.831894 310.402649,187.410782 
	C311.527893,186.894562 313.614105,187.594650 314.878571,188.403763 
	C322.640839,193.370621 327.489044,200.946182 330.381287,209.234344 
	C335.148651,222.895874 337.789276,236.903580 334.494446,251.659592 
	C333.094543,257.929260 333.301819,264.855286 334.234070,271.271545 
	C335.355286,278.988312 343.613068,281.298798 349.383362,276.092590 
	C359.383759,267.069794 367.886047,257.117432 370.488739,243.252365 
	C371.241882,239.240143 373.559753,238.798035 376.313904,241.937119 
	C377.912354,243.759048 379.322937,245.962921 380.116638,248.239456 
	C386.421021,266.322876 385.759583,284.113220 376.718079,301.143799 
	C373.942657,306.371613 369.928070,310.937134 366.542633,315.848450 
	C365.609741,317.201843 364.899323,318.708588 364.051422,320.489624 
	C338.641571,320.880493 313.267120,320.926636 287.425964,320.904236 
	C278.282227,311.905884 272.841919,301.460541 272.346436,288.369141 
	C273.133057,287.247894 273.895721,286.647888 273.942200,285.996704 
	C274.348877,280.302032 274.627594,274.598206 274.944275,268.897095 
z"/>
<path fill="#FFAC0F" opacity="1.000000" stroke="none" 
	d="
M124.450394,320.903351 
	C123.323799,316.939087 122.163910,313.052856 122.094429,309.147217 
	C121.889023,297.602386 125.964882,287.342560 133.164230,278.504089 
	C137.584686,273.077148 142.781662,268.282715 148.631866,262.154816 
	C150.469391,266.610626 151.603699,269.419495 152.782410,272.209595 
	C158.884460,286.653717 162.020264,301.434113 157.818390,317.025848 
	C157.520981,318.129395 156.855576,319.133789 156.200684,320.509979 
	C145.665192,320.881287 135.290298,320.926910 124.450394,320.903351 
z"/>
<path fill="#FFAC0F" opacity="1.000000" stroke="none" 
	d="
M489.450134,320.903168 
	C488.596008,319.415497 488.302887,317.962219 487.803162,316.583862 
	C482.177063,301.065948 486.291168,286.787445 498.856384,276.154907 
	C503.057587,272.599884 507.768738,269.647552 512.246765,266.419739 
	C512.811340,266.686340 513.375977,266.952972 513.940552,267.219574 
	C514.347229,269.828918 514.407349,272.553680 515.230286,275.024353 
	C517.155090,280.802948 519.058899,286.644440 521.675476,292.124146 
	C526.021912,301.226379 526.771240,310.427765 524.020996,320.429993 
	C512.648560,320.880280 501.281860,320.926300 489.450134,320.903168 
z"/>
<path fill="#FFAC0F" opacity="1.000000" stroke="none" 
	d="
M274.628723,269.105652 
	C274.627594,274.598206 274.348877,280.302032 273.942200,285.996704 
	C273.895721,286.647888 273.133057,287.247894 272.338135,287.939301 
	C272.753571,281.776031 273.533356,275.545105 274.628723,269.105652 
z"/>
<path fill="#FFFFFF" opacity="1.000000" stroke="none" 
	d="
M298.000000,504.000000 
	C298.000000,472.701935 297.997986,441.903839 298.001556,411.105774 
	C298.002380,404.093964 299.059387,403.006592 305.895508,403.002441 
	C319.380066,402.994263 332.864624,402.991821 346.349182,403.003448 
	C353.080780,403.009216 354.992523,404.841705 354.994263,411.372498 
	C355.005463,453.157990 355.008209,494.943512 354.992065,536.729004 
	C354.989288,543.885376 353.834351,544.996826 346.722870,544.998840 
	C332.905365,545.002747 319.081879,544.763123 305.273193,545.111877 
	C299.417969,545.259766 297.928955,543.404724 297.975433,537.461975 
	C298.061310,526.475281 298.000000,515.487366 298.000000,504.000000 
z"/>
<path fill="#FFFFFF" opacity="1.000000" stroke="none" 
	d="
M150.000000,455.000000 
	C150.000000,469.464996 150.000000,483.429962 150.000000,498.102142 
	C132.602341,497.257996 115.481277,499.446808 97.602638,496.577789 
	C114.888420,469.276886 131.594315,442.891815 148.300217,416.506775 
	C148.866806,416.748505 149.433411,416.990265 150.000000,417.231995 
	C150.000000,429.654663 150.000000,442.077332 150.000000,455.000000 
z"/>
<path fill="#FFFFFF" opacity="1.000000" stroke="none" 
	d="
M509.713348,460.692719 
	C519.384949,445.472351 528.845459,430.557159 538.305969,415.641968 
	C538.726318,415.820587 539.146667,415.999207 539.567017,416.177826 
	C539.567017,443.182251 539.567017,470.186676 539.567017,497.596191 
	C522.146057,497.596191 504.428650,497.596191 486.274628,497.596191 
	C494.029205,485.377777 501.765717,473.187836 509.713348,460.692719 
z"/>
</svg>