<?xml version="1.0" encoding="UTF-8" standalone="no"?>
<svg
   version="1.1"
   width="651"
   height="651"
   id="svg20"
   sodipodi:docname="404_large.svg"
   xmlns:inkscape="http://www.inkscape.org/namespaces/inkscape"
   xmlns:sodipodi="http://sodipodi.sourceforge.net/DTD/sodipodi-0.dtd"
   xmlns="http://www.w3.org/2000/svg"
   xmlns:svg="http://www.w3.org/2000/svg">
  <defs
     id="defs24" />
  <sodipodi:namedview
     id="namedview22"
     pagecolor="#ffffff"
     bordercolor="#000000"
     borderopacity="0.25"
     inkscape:showpageshadow="2"
     inkscape:pageopacity="0.0"
     inkscape:pagecheckerboard="true"
     inkscape:deskcolor="#d1d1d1"
     showgrid="false"
     showborder="false" />
  <path
     d="m 328,24 c 10.24809,5.907722 16.55248,20.200368 20,31 5.5115,20.977327 1.62096,39.68154 -3.93018,60.15747 C 339.99888,130.17734 338.09205,147.49972 345,162 c 2.52001,4.22664 4.8887,6.45483 9.3125,8.625 4.88362,0.49664 8.3582,-0.34213 12.6875,-2.625 5.58501,-4.96446 8.5139,-11.86264 9.21728,-19.29639 0.2017,-3.4706 0.31975,-6.94089 0.42701,-10.41552 C 376.95306,129.44165 378.37383,122.03271 384,115 c 3.46924,-2.31283 4.92206,-2.42479 9,-2 3.62607,2.47232 4.16909,6.43342 5.25,10.4375 2.87794,9.81451 7.80434,17.70182 13.50464,26.12695 C 420.61689,162.68 428.31602,176.78388 429,193 c 0.0516,1.07379 0.10313,2.14758 0.15625,3.25391 0.3985,15.92325 -3.59992,29.56621 -8.61279,44.53686 C 417.66391,249.524 415.44315,258.28 413.4375,267.25 409.20751,285.77643 401.8866,302.4985 386,314 c -5.61168,3.03151 -11.52742,6.1079 -18.00047,6.14717 -1.21706,0.0107 -1.21706,0.0107 -2.4587,0.0217 -0.88673,0.003 -1.77347,0.005 -2.68707,0.008 -0.93701,0.007 -1.87403,0.0131 -2.83943,0.0199 -3.10764,0.0197 -6.21524,0.0314 -9.32292,0.0414 -1.06347,0.004 -2.12693,0.008 -3.22262,0.0124 -5.63534,0.0209 -11.27067,0.0352 -16.90605,0.0445 -5.80009,0.011 -11.5998,0.0454 -17.39976,0.0852 -4.47582,0.0263 -8.95154,0.0345 -13.42743,0.0381 -2.13646,0.005 -4.27291,0.0164 -6.40928,0.035 -23.58228,0.19272 -38.34459,-6.61764 -55.65977,-22.80749 C 224.19891,284.34413 216.41048,268.19752 212,250 c -0.31969,-1.25039 -0.63938,-2.50078 -0.96875,-3.78906 -6.27568,-28.06626 -1.02119,-57.8336 12.44141,-82.96875 1.62708,-2.38861 3.03488,-3.78703 5.52734,-5.24219 3.82109,0.90978 4.78194,1.67292 7,5 0.40723,2.26147 0.40723,2.26147 0.64062,4.90234 0.0978,0.96769 0.19562,1.93537 0.29639,2.93238 0.10329,1.02392 0.20657,2.04783 0.31299,3.10278 1.14504,9.90802 2.39066,19.39548 10.32031,26.30078 4.00152,2.90142 6.44583,3.26855 11.42969,2.76172 3.18329,-1.59718 3.18329,-1.59718 5,-5 1.65099,-7.66435 -0.67187,-15.20517 -2.5,-22.625 -5.81193,-23.81315 -1.72514,-46.41513 11.00781,-67.50391 C 279.0945,97.404234 286.6924,87.504287 294.8125,78.1875 305.94249,65.367523 312.80641,52.581068 314.41016,35.480469 315.18019,30.936736 316.65263,27.440287 319.8125,24.0625 323.05426,22.487931 324.58762,22.862538 328,24 Z"
     fill="#f77b0b"
     id="path2" />
  <path
     d="m 288.81177,353.59595 c 0.84181,-0.007 1.68363,-0.0137 2.55095,-0.0208 2.76078,-0.0182 5.52099,-0.0144 8.28181,-0.009 1.9352,-0.005 3.8704,-0.01 5.80559,-0.0159 4.049,-0.009 8.09781,-0.007 12.14681,0.003 5.16452,0.0115 10.32836,-0.009 15.4928,-0.0379 3.99541,-0.0184 7.99067,-0.018 11.98611,-0.0124 1.90282,1.5e-4 3.80564,-0.006 5.70841,-0.0183 15.19898,-0.0855 26.03317,1.76017 38.21575,11.51461 0.62649,0.47696 1.25297,0.95391 1.89844,1.44531 7.56808,6.54075 12.72477,17.78316 14.10156,27.55469 0.0936,2.20935 0.1389,4.42103 0.14717,6.63234 0.0107,1.97835 0.0107,1.97835 0.0217,3.99666 0.003,1.44992 0.006,2.89984 0.008,4.34976 0.006,1.53643 0.0129,3.07285 0.0199,4.60927 0.021,5.03445 0.0314,10.0689 0.0414,15.10338 0.004,1.7388 0.008,3.47761 0.0124,5.21641 0.019,8.17296 0.0333,16.34592 0.0416,24.5189 0.01,9.40717 0.0361,18.8141 0.0765,28.22119 0.0303,7.28859 0.045,14.57711 0.0483,21.86576 0.002,4.34486 0.0112,8.68948 0.0365,13.03428 0.0234,4.09345 0.0274,8.18648 0.0172,12.27999 -5e-4,1.49262 0.006,2.98527 0.0196,4.47783 0.13648,15.60701 -3.35765,29.33756 -14.24028,40.94423 -13.13843,12.294 -28.23188,13.22391 -45.34375,13.1836 -1.72148,0.005 -3.44295,0.01 -5.16443,0.0159 -3.58703,0.009 -7.17383,0.007 -10.76086,-0.003 -4.56224,-0.0115 -9.12371,0.009 -13.68584,0.0379 -3.54856,0.0185 -7.09694,0.018 -10.64554,0.0124 -1.68066,-1.5e-4 -3.36134,0.006 -5.04196,0.0183 -15.81845,0.1013 -29.27659,-2.50029 -41.5998,-13.2529 -11.97222,-12.4245 -14.31382,-27.93354 -14.28248,-44.4292 -0.004,-1.52041 -0.01,-3.04081 -0.0155,-4.56122 -0.0133,-4.10753 -0.014,-8.21498 -0.0114,-12.32253 0.001,-3.43912 -0.004,-6.87822 -0.009,-10.31733 -0.0111,-8.11886 -0.0115,-16.23767 -0.005,-24.35653 0.006,-8.35303 -0.006,-16.70588 -0.0276,-25.05887 -0.0177,-7.19267 -0.0236,-14.38527 -0.0204,-21.57796 0.002,-4.28657 -7.5e-4,-8.57302 -0.0147,-12.85957 -0.0126,-4.03353 -0.0106,-8.06681 0.002,-12.10034 0.002,-1.47249 -3.1e-4,-2.945 -0.009,-4.41747 -0.086,-16.43917 3.4411,-29.84889 14.9236,-41.99898 8.2991,-7.62774 18.07145,-11.73116 29.27271,-11.66625 z M 297,405 c -0.44983,2.56345 -0.44983,2.56345 -0.37422,5.50366 -0.007,1.14412 -0.014,2.28823 -0.0213,3.46702 0.0115,1.8843 0.0115,1.8843 0.0232,3.80667 -0.002,1.33546 -0.006,2.67092 -0.0111,4.00637 -0.009,3.62811 2e-5,7.25594 0.0133,10.88403 0.0113,3.79426 0.007,7.58851 0.005,11.38279 -8.9e-4,6.3722 0.0102,12.74429 0.0286,19.11645 0.0212,7.37033 0.0247,14.74051 0.0184,22.11086 -0.006,7.08588 -5e-5,14.17171 0.0112,21.25758 0.005,3.01749 0.006,6.03494 0.003,9.05243 -0.002,3.55243 0.006,7.10471 0.0221,10.6571 0.006,1.92812 0.003,3.85625 -0.001,5.78437 0.007,1.14411 0.0142,2.28823 0.0215,3.46701 0.002,0.99625 0.004,1.9925 0.006,3.01894 0.0848,2.73615 0.0848,2.73615 2.25447,5.48472 2.28421,0.44494 2.28421,0.44494 4.96875,0.35645 1.03448,0.003 2.06895,0.006 3.13477,0.009 1.12084,-0.0123 2.24168,-0.0247 3.39648,-0.0374 1.14663,-0.002 2.29325,-0.004 3.47461,-0.006 2.42777,-0.007 4.85552,-0.0207 7.28321,-0.0412 3.72666,-0.0311 7.4529,-0.041 11.17968,-0.0469 2.35418,-0.009 4.70834,-0.0196 7.0625,-0.0312 1.68126,-0.006 1.68126,-0.006 3.39649,-0.0129 1.03447,-0.01 2.06894,-0.0192 3.13476,-0.0291 0.9133,-0.007 1.82661,-0.0137 2.76758,-0.0207 2.2443,2.3e-4 2.2443,2.3e-4 4.20117,-1.14044 1.02596,-3.07785 1.13311,-5.19584 1.14717,-8.421 0.007,-1.12584 0.0143,-2.25168 0.0217,-3.41164 0.003,-1.23593 0.005,-2.47186 0.008,-3.74524 0.007,-1.30099 0.0131,-2.60198 0.0199,-3.9424 0.021,-4.31484 0.0314,-8.62968 0.0414,-12.94456 0.004,-1.48548 0.008,-2.97095 0.0123,-4.45642 0.019,-6.97641 0.0333,-13.9528 0.0416,-20.92922 0.01,-8.05574 0.0361,-16.1112 0.0765,-24.16684 0.0301,-6.22597 0.045,-12.45187 0.0483,-18.67792 0.002,-3.71922 0.0113,-7.43814 0.0365,-11.15728 0.0276,-4.14691 0.0235,-8.29321 0.0165,-12.4402 0.0128,-1.23391 0.0256,-2.46781 0.0388,-3.73911 -0.007,-1.12866 -0.0139,-2.25732 -0.021,-3.42018 0.002,-0.98058 0.005,-1.96116 0.007,-2.97145 C 353.85845,405.26317 352.60641,404.07406 350,402 c -2.38703,-0.59248 -2.38703,-0.59248 -4.99634,-0.50171 -1.48657,-0.0141 -1.48657,-0.0141 -3.00318,-0.0284 -1.06364,0.0112 -2.12727,0.0225 -3.22313,0.034 -1.09703,-0.001 -2.19406,-0.003 -3.32433,-0.004 -2.31745,0.002 -4.63492,0.0132 -6.95228,0.034 -3.55346,0.029 -7.10542,0.0206 -10.65894,0.008 -2.25066,0.006 -4.50131,0.0146 -6.75195,0.0254 -1.59849,-0.004 -1.59849,-0.004 -3.22927,-0.009 -0.9879,0.0127 -1.9758,0.0254 -2.99363,0.0384 -0.86952,0.005 -1.73904,0.0108 -2.63491,0.0164 -2.80259,0.48678 -3.5202,1.13669 -5.23204,3.38768 z"
     fill="#ffab0f"
     id="path4" />
  <path
     d="m 135.5293,353.74121 c 0.67008,-0.004 1.34015,-0.007 2.03053,-0.0106 2.21975,-0.009 4.43917,-0.003 6.65892,0.004 1.53935,-10e-4 3.0787,-0.003 4.61804,-0.006 3.22811,-0.003 6.45611,10e-4 9.68421,0.0107 4.14306,0.0114 8.28586,0.005 12.42892,-0.007 3.17923,-0.007 6.35841,-0.005 9.53765,2.6e-4 1.52786,10e-4 3.05573,-3.1e-4 4.58358,-0.005 2.13334,-0.005 4.26625,0.003 6.39956,0.0138 1.82295,0.002 1.82295,0.002 3.68274,0.005 C 198,354 198,354 200,356 c 1.1244,3.22281 1.12336,6.29027 1.12026,9.68207 0.002,1.73735 0.002,1.73735 0.004,3.50981 -0.004,1.26667 -0.007,2.53334 -0.0109,3.83839 -2.8e-4,1.35033 -1.3e-4,2.70066 4.4e-4,4.05098 2.9e-4,3.66289 -0.006,7.32574 -0.0126,10.98861 -0.006,3.82903 -0.007,7.65805 -0.008,11.48709 -0.003,7.24952 -0.0113,14.49902 -0.0213,21.74854 -0.0112,8.25386 -0.0167,16.50773 -0.0217,24.7616 -0.0104,16.97764 -0.0282,33.95527 -0.0503,50.93291 6.6,0 13.2,0 20,0 1.13492,2.26984 1.13221,3.53055 1.14526,6.05078 0.006,0.83427 0.0128,1.66853 0.0193,2.52808 0.002,1.35315 0.002,1.35315 0.003,2.73364 0.003,0.92466 0.007,1.84932 0.0101,2.802 0.005,1.95695 0.007,3.9139 0.007,5.87085 0.002,3.00242 0.0204,6.00448 0.0393,9.00684 0.003,1.89843 0.005,3.79687 0.006,5.69531 0.007,0.9021 0.0144,1.8042 0.0218,2.73364 -0.003,0.83427 -0.006,1.66853 -0.009,2.52808 0.001,0.73565 0.003,1.4713 0.004,2.22925 C 222.00011,541 222.00011,541 220.00011,543 c -1.9712,0.22705 -1.9712,0.22705 -4.35157,0.19531 -0.85078,-0.006 -1.70156,-0.0129 -2.57812,-0.0195 -0.88945,-0.0168 -1.77891,-0.0335 -2.69531,-0.0508 -0.89719,-0.009 -1.79438,-0.0181 -2.71875,-0.0273 -2.21902,-0.0236 -4.4375,-0.0565 -6.65625,-0.0977 0.009,0.55488 0.0178,1.10976 0.0269,1.68146 0.0885,5.77486 0.14882,11.54952 0.19281,17.32489 0.0201,2.15535 0.0474,4.31065 0.082,6.46582 0.0485,3.09795 0.0712,6.19519 0.0889,9.29345 0.0207,0.96368 0.0413,1.92735 0.0626,2.92023 0.001,3.82246 -0.029,6.51877 -1.84455,9.92279 -4.13489,2.20541 -8.12258,1.94178 -12.73755,1.88745 -1.47907,0.002 -1.47907,0.002 -2.98802,0.004 -2.08206,-0.002 -4.16414,-0.0132 -6.24611,-0.034 -3.19136,-0.029 -6.38107,-0.0206 -9.57251,-0.008 -2.02279,-0.006 -4.04558,-0.0146 -6.06836,-0.0254 -0.95628,0.003 -1.91257,0.006 -2.89784,0.009 -0.88779,-0.0127 -1.77559,-0.0254 -2.69029,-0.0384 -1.17104,-0.008 -1.17104,-0.008 -2.36574,-0.0164 -2.63062,-0.49938 -3.39148,-1.30185 -5.04222,-3.38768 -0.36076,-2.1071 -0.36076,-2.1071 -0.34058,-4.56323 2.3e-4,-0.92073 4.6e-4,-1.84146 6.9e-4,-2.79009 0.0155,-0.99071 0.031,-1.98142 0.0469,-3.00215 0.004,-1.01677 0.008,-2.03355 0.0129,-3.08113 0.0168,-3.25057 0.0545,-6.50052 0.0926,-9.7509 0.015,-2.20247 0.0287,-4.40494 0.041,-6.60742 0.0331,-5.40191 0.0833,-10.80345 0.14649,-16.20508 -0.55476,0.003 -1.10952,0.006 -1.68109,0.008 -13.48652,0.0662 -26.973,0.11568 -40.45964,0.14706 -6.522,0.0157 -13.043886,0.037 -19.565818,0.0709 -6.28936,0.0325 -12.578608,0.0505 -18.868046,0.0583 -2.404282,0.006 -4.808557,0.0164 -7.212791,0.0326 -3.357307,0.0217 -6.714142,0.0248 -10.071507,0.0234 -1.002689,0.0108 -2.005378,0.0216 -3.038452,0.0327 -0.911478,-0.004 -1.822956,-0.008 -2.762054,-0.0125 -1.191879,0.004 -1.191879,0.004 -2.407835,0.008 -0.637815,-0.12181 -1.275629,-0.24363 -1.932772,-0.36914 -2.047572,-3.07136 -2.27177,-3.87228 -2.401611,-7.36939 -0.03535,-0.88265 -0.07071,-1.7653 -0.107132,-2.67469 -0.103488,-4.09124 -0.192812,-8.18181 -0.246384,-12.27404 -0.03778,-2.13662 -0.09873,-4.27297 -0.18457,-6.4082 -0.608096,-15.26189 1.356091,-25.17339 10.597137,-37.4744 1.746379,-2.34047 3.291622,-4.78863 4.838654,-7.26412 0.978205,-1.49238 1.958631,-2.98329 2.941406,-4.47266 4.179221,-6.38352 8.313016,-12.79122 12.375,-19.25 5.329338,-8.47173 10.716945,-16.90517 16.117676,-25.33154 3.850964,-6.00986 7.691253,-12.02622 11.516846,-18.05225 30.906273,-48.67534 30.906273,-48.67534 39.082163,-48.68604 z M 148,413 c -0.88006,1.28189 -1.70965,2.59843 -2.51953,3.92578 -0.5215,0.84965 -1.04301,1.69931 -1.58032,2.57471 -0.56517,0.92796 -1.13035,1.85593 -1.71265,2.81201 -1.19198,1.94185 -2.38471,3.88325 -3.57812,5.82422 -0.60522,0.98533 -1.21043,1.97065 -1.83399,2.98584 -2.58298,4.18634 -5.20571,8.3469 -7.83789,12.50244 -0.49024,0.77448 -0.98049,1.54897 -1.48559,2.34692 -0.98907,1.56195 -1.9784,3.12371 -2.96802,4.68531 -1.99759,3.15381 -3.99091,6.31031 -5.98389,9.46704 -0.99314,1.57297 -1.98663,3.14572 -2.98047,4.71826 -2.61729,4.14161 -5.2298,8.28616 -7.83593,12.43481 -0.54334,0.86367 -1.08668,1.72735 -1.64649,2.61719 -1.04046,1.65407 -2.07959,3.30897 -3.11718,4.96484 -0.46987,0.74637 -0.93973,1.49274 -1.42383,2.26172 -0.41065,0.65412 -0.8213,1.30824 -1.24439,1.98218 C 99.000003,491 99.000003,491 97.343997,493.11743 95.806324,494.88578 95.806324,494.88578 96.000003,497 113.49,497 130.98,497 149,497 c 0,-27.72 0,-55.44 0,-84 -0.33,0 -0.66,0 -1,0 z"
     fill="#ffac0f"
     id="path6" />
  <path
     d="m 526.23804,353.83887 c 1.9673,-0.0144 1.9673,-0.0144 3.97435,-0.0291 1.43832,-0.005 2.87664,-0.009 4.31496,-0.0129 1.46969,-0.006 2.93938,-0.0115 4.40907,-0.0173 3.08264,-0.0105 6.16525,-0.0163 9.24791,-0.0198 3.95245,-0.005 7.90456,-0.0295 11.85691,-0.058 3.03601,-0.0186 6.07193,-0.0238 9.108,-0.0254 1.45727,-0.003 2.91455,-0.0111 4.37177,-0.0242 2.03712,-0.017 4.07438,-0.0133 6.11156,-0.009 1.15979,-0.004 2.31958,-0.007 3.51451,-0.011 C 586,354 586,354 587.65576,355.16824 c 1.88073,2.56282 1.7135,4.34423 1.70501,7.50747 0.006,1.77316 0.006,1.77316 0.0125,3.58214 -0.0108,1.29831 -0.0216,2.59663 -0.0327,3.93429 -8.5e-4,1.37974 -3.8e-4,2.75947 0.001,4.13921 8.6e-4,3.74775 -0.0168,7.49522 -0.0377,11.24291 -0.0187,3.91577 -0.0205,7.83154 -0.0241,11.74735 -0.009,7.41607 -0.034,14.832 -0.064,22.24801 -0.0335,8.44246 -0.05,16.88492 -0.0651,25.32742 -0.0314,17.36773 -0.0842,34.73533 -0.15098,52.10296 0.59539,-0.0105 1.19078,-0.0209 1.8042,-0.0317 2.69023,-0.0415 5.38038,-0.0676 8.0708,-0.0933 0.93715,-0.0168 1.8743,-0.0335 2.83985,-0.0508 0.8959,-0.006 1.7918,-0.0129 2.71484,-0.0195 0.82742,-0.0105 1.65484,-0.0209 2.50733,-0.0317 2.06298,0.22705 2.06298,0.22705 4.06298,2.22705 0.25397,1.82154 0.25397,1.82154 0.25879,4.05078 0.006,0.83427 0.0126,1.66853 0.0191,2.52808 -0.006,1.35315 -0.006,1.35315 -0.0123,2.73364 0.002,0.92466 0.004,1.84932 0.006,2.802 10e-4,1.95696 -0.002,3.91392 -0.0107,5.87085 -0.0107,3.00249 -10e-5,6.00437 0.0127,9.00684 -10e-4,1.89844 -0.004,3.79688 -0.008,5.69531 0.004,0.9021 0.008,1.80421 0.0123,2.73365 -0.01,1.25139 -0.01,1.25139 -0.0191,2.52807 -0.002,0.73565 -0.003,1.47131 -0.005,2.22925 -0.25396,1.82153 -0.25396,1.82153 -2.25396,3.82153 -2.06299,0.22705 -2.06299,0.22705 -4.57032,0.19532 -0.89589,-0.006 -1.79179,-0.0129 -2.71484,-0.0195 -1.40572,-0.0251 -1.40572,-0.0251 -2.83984,-0.0508 -0.94489,-0.009 -1.88977,-0.018 -2.86328,-0.0273 -2.3375,-0.0236 -4.67448,-0.0565 -7.01172,-0.0977 0.01,0.85445 0.01,0.85445 0.0202,1.72615 0.0663,5.92074 0.11159,11.84137 0.1446,17.76238 0.0151,2.21065 0.0356,4.42128 0.0615,6.63183 0.0363,3.1748 0.0534,6.34921 0.0666,9.52417 0.0155,0.99071 0.031,1.98142 0.0469,3.00216 3.4e-4,1.38109 3.4e-4,1.38109 6.9e-4,2.79008 0.01,1.21579 0.01,1.21579 0.0202,2.45613 -0.45839,2.67731 -1.15882,3.54156 -3.36076,5.1071 -1.96629,0.38095 -1.96629,0.38095 -4.22437,0.38819 -1.27163,0.0142 -1.27163,0.0142 -2.56895,0.0286 -1.36881,-0.009 -1.36881,-0.009 -2.76528,-0.0184 -0.94069,0.003 -1.88139,0.006 -2.8506,0.009 -1.98966,0.002 -3.97935,-0.004 -5.96898,-0.016 -3.04432,-0.016 -6.08731,-1.7e-4 -9.13159,0.019 -1.93294,-0.002 -3.86589,-0.006 -5.79883,-0.0117 -0.91051,0.006 -1.82103,0.0121 -2.75914,0.0184 -1.27636,-0.0142 -1.27636,-0.0142 -2.5785,-0.0286 -0.74596,-0.002 -1.49192,-0.005 -2.26048,-0.007 -2.75307,-0.50102 -4.04842,-1.48282 -6.09328,-3.38095 -0.48102,-2.1071 -0.48102,-2.1071 -0.4541,-4.56323 3e-4,-0.92073 6e-4,-1.84146 9.1e-4,-2.79008 0.0206,-0.99071 0.0413,-1.98142 0.0626,-3.00216 0.006,-1.01677 0.0113,-2.03354 0.0172,-3.08113 0.0224,-3.25077 0.0726,-6.50045 0.12348,-9.7509 0.0201,-2.20246 0.0383,-4.40493 0.0547,-6.60742 0.0441,-5.40207 0.11108,-10.80349 0.19531,-16.20508 -0.55991,0.002 -1.11983,0.004 -1.69671,0.006 -13.61171,0.0441 -27.22341,0.0771 -40.83517,0.098 -6.5825,0.0104 -13.16495,0.0246 -19.74742,0.0472 -6.34771,0.0217 -12.69536,0.0337 -19.04311,0.0389 -2.4266,0.004 -4.8532,0.0109 -7.27977,0.0217 -3.38837,0.0144 -6.77652,0.0165 -10.16491,0.0156 -1.51806,0.0108 -1.51806,0.0108 -3.06679,0.0218 -0.91989,-0.003 -1.83978,-0.005 -2.78755,-0.008 -1.20294,0.003 -1.20294,0.003 -2.43018,0.006 -1.94839,-0.2461 -1.94839,-0.2461 -3.94839,-2.2461 -0.29434,-2.02672 -0.29434,-2.02672 -0.354,-4.55053 -0.0257,-0.94537 -0.0513,-1.89073 -0.0778,-2.86474 -0.0148,-1.02698 -0.0295,-2.05397 -0.0448,-3.11207 -0.0161,-1.05869 -0.0323,-2.11738 -0.0489,-3.20815 -0.0277,-2.24866 -0.0491,-4.49741 -0.0649,-6.7462 -0.0342,-3.41207 -0.12193,-6.82016 -0.21045,-10.2312 -0.28242,-19.69113 -0.28242,-19.69113 6.73779,-27.23657 0.68079,-0.67668 1.36157,-1.35335 2.06299,-2.05054 0.91542,-1.32014 1.79279,-2.66806 2.61718,-4.04687 0.37335,-0.60836 0.74669,-1.21672 1.13135,-1.84351 0.37174,-0.61367 0.74347,-1.22735 1.12647,-1.85962 3.1575,-5.12927 6.38044,-10.19501 9.75,-15.1875 4.41763,-6.55871 8.68661,-13.20721 12.9375,-19.875 6.4104,-10.05189 12.89777,-20.04873 19.43408,-30.01904 3.41336,-5.2069 6.81878,-10.41795 10.18603,-15.65479 4.98639,-7.75315 10.04827,-15.45673 15.14017,-23.1409 0.82293,-1.24315 1.6443,-2.48735 2.46405,-3.7326 1.1512,-1.74767 2.30833,-3.49125 3.46707,-5.23392 1.01043,-1.52657 1.01043,-1.52657 2.04126,-3.08398 2.88614,-3.93311 5.26607,-3.45756 9.94287,-3.48511 z M 537,414 c -1.487,1.93587 -1.487,1.93587 -2.98437,4.47656 -0.59877,0.97043 -1.19754,1.94085 -1.81446,2.94068 -0.64388,1.05856 -1.28777,2.11712 -1.95117,3.20776 -1.35851,2.20496 -2.71791,4.40937 -4.07812,6.61328 -0.34628,0.563 -0.69255,1.12599 -1.04932,1.70604 -3.48322,5.65968 -7.04544,11.26756 -10.62256,16.86818 -0.55011,0.86255 -1.10021,1.72509 -1.66699,2.61377 -1.06925,1.67632 -2.13882,3.35243 -3.20874,5.02832 C 506.74494,461.96682 503.87199,466.4831 501,471 c -0.53222,0.83701 -1.06444,1.67401 -1.61279,2.53638 -1.52681,2.40334 -3.05106,4.80828 -4.57471,7.21362 -0.50724,0.79793 -1.01449,1.59586 -1.53711,2.41797 -0.49693,0.78504 -0.99386,1.57008 -1.50586,2.37891 -0.43723,0.68932 -0.87446,1.37865 -1.32495,2.08886 -1.88255,3.08107 -3.65318,6.22932 -5.44458,9.36426 17.82,0 35.64,0 54,0 0,-27.39 0,-54.78 0,-83 -0.66,0 -1.32,0 -2,0 z"
     fill="#ffac0f"
     id="path8" />
  <path
     d="m 171.4375,120 c 3.5625,1 3.5625,1 5.9375,3.8125 5.48528,10.75958 2.83392,23.91341 -0.6123,34.97803 -1.71232,4.96043 -3.79649,9.7782 -5.94434,14.56372 -4.57629,10.25147 -6.8932,20.78405 -3.56836,31.83325 2.44484,6.09452 6.39092,11.1359 10.24292,16.39746 11.53827,15.91852 16.7159,34.39673 14.01099,54.0127 -2.94112,15.00469 -9.17248,30.03649 -22.19141,39.02734 -2.01172,1.22656 -2.01172,1.22656 -4.3125,2.375 -0.99709,0.50974 -1.99418,1.01949 -3.02148,1.54468 -4.59332,1.94592 -9.00697,1.90508 -13.93555,1.88891 -0.94301,0.005 -1.88601,0.0105 -2.85759,0.0159 -1.98765,0.006 -3.97533,0.005 -5.96297,-0.003 -3.01559,-0.008 -6.02927,0.0203 -9.04468,0.052 -1.94075,0.002 -3.88151,10e-4 -5.82226,-0.002 -0.88888,0.0112 -1.77775,0.0225 -2.69356,0.034 C 109.7839,320.4002 101.42757,315.01061 93,307 81.758032,295.31146 76.624925,281.19423 76.6875,265.1875 c -0.01611,-0.81275 -0.03223,-1.62551 -0.04883,-2.46289 -0.0094,-11.95825 4.06968,-22.16819 9.236328,-32.78711 0.516914,-1.11311 1.033828,-2.22621 1.566406,-3.37305 0.767637,-1.59618 0.767637,-1.59618 1.550782,-3.22461 0.457456,-0.95527 0.914912,-1.91055 1.38623,-2.89477 1.862172,-2.80784 3.641437,-3.94178 6.621582,-5.44507 1.933594,1.01562 1.933594,1.01562 4.000002,3 0.54416,2.6708 0.87808,5.05496 1.0625,7.75 0.43091,5.70297 1.34257,10.10589 3.9375,15.25 2.4824,2.03912 4.20651,2.02253 7.4375,2.375 4.21052,-0.44321 5.67775,-1.32541 8.5625,-4.375 3.49286,-7.18113 2.71655,-15.08296 0.5,-22.5625 -3.25575,-11.83909 -3.1785,-25.42258 2.5,-36.4375 0.42797,-0.91266 0.85594,-1.82531 1.29687,-2.76563 3.9549,-7.62439 9.31177,-13.31091 15.2229,-19.46069 8.41811,-8.77169 14.01947,-18.2741 19.66285,-28.99536 0.4502,-0.84466 0.90041,-1.68932 1.36425,-2.55957 0.60087,-1.14565 0.60087,-1.14565 1.21387,-2.31445 2.15551,-3.31224 3.78448,-3.9043 7.67676,-3.9043 z"
     fill="#f77b0b"
     id="path10" />
  <path
     d="m 505.3125,158.5 c 3.32033,0.61774 4.51659,2.0319 6.51953,4.67578 1.149,1.7946 2.03518,3.57437 2.91797,5.51172 3.56127,7.52461 9.65517,13.62176 15.3125,19.625 12.16053,13.59548 15.95528,28.4283 15.12793,46.27295 -0.39889,5.05769 -1.4176,9.95702 -2.53418,14.89892 -0.9693,5.19271 -1.65341,9.01989 1.34375,13.51563 3.37483,0.70927 3.37483,0.70927 7,0 2.77249,-2.35687 2.77249,-2.35687 4.9375,-5.5 0.77215,-1.02094 1.5443,-2.04188 2.33984,-3.09375 0.56848,-0.79406 1.13696,-1.58813 1.72266,-2.40625 2.99448,0.32373 4.56886,0.55801 6.70703,2.75 5.45427,9.49142 5.43007,20.89068 3.16797,31.3125 -3.22024,11.43483 -9.74323,22.18299 -19.75781,28.85937 -6.07935,3.40444 -10.76017,5.18049 -17.73682,5.271 -1.69294,0.0241 -1.69294,0.0241 -3.42007,0.0487 -5.16432,0.0447 -10.32855,0.0859 -15.49301,0.10855 -2.7178,0.0133 -5.43483,0.0411 -8.15235,0.082 -3.93048,0.0592 -7.86059,0.0767 -11.7915,0.0913 -1.20452,0.0227 -2.40904,0.0453 -3.65006,0.0687 -11.72589,-0.0291 -19.2277,-4.24169 -27.61947,-12.21322 C 449.19215,294.59275 446.41364,277.51619 446.77344,259.29688 447.32198,243.99098 454.81728,227.53079 465,216 c 2.3125,0.0625 2.3125,0.0625 5,1 1.60735,3.02923 2.67597,5.84907 3.60156,9.13672 1.24256,4.04955 1.92874,5.53449 5.52344,8.05078 5.12032,1.07362 8.33802,0.35784 12.875,-2.1875 5.70051,-4.59998 8.38897,-11.11592 9.28564,-18.2832 0.1153,-2.30994 0.12967,-4.59194 0.0894,-6.9043 -0.006,-0.82734 -0.0116,-1.65467 -0.0176,-2.50708 -0.12907,-6.17817 -1.19714,-11.81722 -2.67773,-17.81714 C 497.01485,177.94405 496.39202,168.64251 501,161 c 2,-2 2,-2 4.3125,-2.5 z"
     fill="#f77b0b"
     id="path12" />
  <path
     d="m 308,186 c 5.35418,-0.16123 7.09378,1.14219 10.94531,4.75391 12.22887,13.36805 16.71019,32.32912 16.29297,50.09375 -0.33154,4.38617 -1.05348,8.67648 -1.78125,13.01171 -1.1034,7.58233 -1.46188,14.4182 2.54297,21.14063 2.65352,2.27445 4.02307,1.99879 7.5625,1.8125 3.40152,-0.804 4.3077,-1.23432 6.4375,-3.8125 0.66,0 1.32,0 2,0 0.26297,-0.58652 0.52594,-1.17305 0.79687,-1.77734 1.25588,-2.3201 2.63197,-3.88607 4.45313,-5.78516 6.89459,-7.75641 10.53248,-16.38086 12.75,-26.4375 3.37026,0.28085 4.73597,0.73787 7.17187,3.15625 7.34552,11.42635 7.65155,28.13962 5.43262,41.16553 C 380.55115,292.54947 376.54005,300.35896 371,308 c -1.29225,1.85376 -2.58393,3.70792 -3.875,5.5625 -0.86238,1.2085 -0.86238,1.2085 -1.74219,2.44141 -1.41404,1.94045 -1.41404,1.94045 -2.38281,3.99609 -9.95307,0.11589 -19.90599,0.20471 -29.8596,0.25906 -4.62199,0.0261 -9.24352,0.0615 -13.86525,0.11814 -4.46096,0.0544 -8.92148,0.0842 -13.38275,0.0972 -1.70129,0.009 -3.40256,0.0273 -5.10366,0.0543 -2.38479,0.0363 -4.76774,0.0413 -7.15275,0.039 -1.05305,0.027 -1.05305,0.027 -2.12737,0.0545 -3.85579,-0.0405 -5.3787,-0.51383 -8.38211,-3.01671 -9.5149,-11.65771 -14.03761,-25.46832 -12.90776,-40.51955 1.75277,-11.96601 7.54972,-20.55 16.78125,-28.08594 12.65817,-11.65884 19.64569,-24.82328 20.41406,-42.00391 0.0789,-2.51927 0.14907,-5.03884 0.21094,-7.55859 0.0387,-1.29486 0.0773,-2.58973 0.11719,-3.92383 C 307.8358,192.34258 307.92153,189.17149 308,186 Z"
     fill="#ffab0f"
     id="path14" />
  <path
     d="m 513,266 c 0.17016,0.82242 0.34031,1.64484 0.51562,2.49219 1.56154,7.19303 3.56477,13.76438 6.48438,20.50781 0.73534,1.78914 1.46458,3.5808 2.1875,5.375 0.32355,0.79148 0.64711,1.58297 0.98047,2.39844 1.75662,4.70083 1.85061,8.23098 1.45703,13.28906 -0.13535,1.84271 -0.13535,1.84271 -0.27344,3.72266 C 524,317 524,317 523,320 c -11.55,0 -23.1,0 -35,0 -3.75016,-12.188 -6.25433,-20.91019 -0.6875,-32.5625 1.93687,-3.39793 3.95801,-6.61389 6.6875,-9.4375 0.66,0 1.32,0 2,0 0.33,-0.99 0.66,-1.98 1,-3 2.39844,-2.00781 2.39844,-2.00781 5.375,-4.125 1.46566,-1.05574 1.46566,-1.05574 2.96094,-2.13281 C 507.95348,267.03042 509.83998,266 513,266 Z"
     fill="#ffab0f"
     id="path16" />
  <path
     d="m 149,263 c 7.25273,18.42907 12.82398,34.16809 8,54 -0.66,0.99 -1.32,1.98 -2,3 -2.48341,0.26727 -4.71472,0.34866 -7.19531,0.29297 -0.70745,-0.004 -1.41489,-0.009 -2.14377,-0.0129 -2.26236,-0.0168 -4.52383,-0.0545 -6.78592,-0.0926 -1.53254,-0.015 -3.06509,-0.0287 -4.59766,-0.041 C 130.51789,320.11338 126.75909,320.06159 123,320 119.67253,307.47539 120.44884,296.80756 126.50781,285.08203 139.9003,263 139.9003,263 149,263 Z"
     fill="#ffab0f"
     id="path18" />
</svg>
